<?xml version="1.0"?>
<svg id="Layer_7" data-name="Layer 7" xmlns="http://www.w3.org/2000/svg" viewBox="0 0 451.78 214.67">
  <defs>
    <style>
      .cls-1 { fill: none; stroke: #1F2B6C; stroke-width: 6px; stroke-miterlimit: 10; }
      .cls-2 { fill: #7B2D26; }
      .cls-3 { fill: #1F2B6C; }
    </style>
  </defs>
  <path class="cls-3" d="M68.74,185.19v-42.9l5.55,14.7L28.09,80.19h25.8l35.4,58.95h-14.85l35.55-58.95h23.85l-46.2,76.8,5.4-14.7v42.9h-24.3Z"></path>
  <g>
    <path class="cls-3" d="M197.72,163.29l.02-.02,24.18-22.78c4.9-4.6,8.63-8.75,11.18-12.45,2.55-3.7,4.25-7.23,5.1-10.58.85-3.35,1.27-6.72,1.27-10.12,0-6.4-1.62-11.9-4.87-16.5-3.25-4.6-7.8-8.18-13.65-10.73-5.75-2.51-12.46-3.78-20.1-3.82h-.38c-9.4,0-17.7,1.75-24.9,5.25-2.96,1.44-5.65,3.09-8.07,4.96-3.46,2.66-6.37,5.76-8.73,9.29l1.43.92h37.21c.27-.02.54-.02.81-.02.43,0,.85.01,1.27.02,4.88.16,8.63,1.28,11.26,3.35,2.85,2.25,4.27,5.48,4.27,9.68,0,1.6-.27,3.35-.82,5.25-.55,1.9-1.58,4-3.08,6.3-1.5,2.3-3.85,4.9-7.05,7.8l-36.19,34.18-4.31,4.07v15.75h79.35v-19.8h-45.2Z"></path>
    <g>
      <line class="cls-1" x1="247.03" y1="173.18" x2="219.2" y2="173.18"></line>
      <polygon class="cls-3" points="242.65 158.22 268.56 173.18 242.65 188.14 242.65 158.22"></polygon>
    </g>
    <g>
      <line class="cls-1" x1="155.43" y1="86.5" x2="183.25" y2="86.5"></line>
      <polygon class="cls-3" points="159.8 101.46 133.9 86.5 159.8 71.54 159.8 101.46"></polygon>
    </g>
    <polygon class="cls-3" points="242.93 163.27 242.93 183.09 163.57 183.09 163.57 167.34 167.88 163.27 242.93 163.27"></polygon>
    <rect class="cls-3" x="158.77" y="76.29" width="42.08" height="20.42"></rect>
  </g>
  <path class="cls-3" d="M316.72,190.25c-8.3,0-15.97-1.35-23.03-4.05-7.05-2.7-13.15-6.5-18.3-11.4-5.15-4.9-9.15-10.65-12-17.25-2.85-6.6-4.27-13.8-4.27-21.6s1.42-15,4.27-21.6c2.85-6.6,6.87-12.35,12.08-17.25,5.2-4.9,11.3-8.7,18.3-11.4,7-2.7,14.6-4.05,22.8-4.05s15.92,1.35,22.88,4.05c6.95,2.7,13,6.5,18.15,11.4,5.15,4.9,9.17,10.63,12.08,17.17,2.9,6.55,4.35,13.78,4.35,21.67s-1.45,15.03-4.35,21.67c-2.9,6.65-6.93,12.4-12.08,17.25-5.15,4.85-11.2,8.62-18.15,11.33-6.95,2.7-14.53,4.05-22.72,4.05ZM316.57,169.55c4.7,0,9.02-.8,12.98-2.4,3.95-1.6,7.42-3.9,10.42-6.9s5.33-6.55,6.97-10.65c1.65-4.1,2.48-8.65,2.48-13.65s-.83-9.55-2.48-13.65c-1.65-4.1-3.95-7.65-6.9-10.65-2.95-3-6.43-5.3-10.42-6.9-4-1.6-8.35-2.4-13.05-2.4s-9.03.8-12.97,2.4c-3.95,1.6-7.42,3.9-10.42,6.9s-5.33,6.55-6.98,10.65c-1.65,4.1-2.47,8.65-2.47,13.65s.83,9.43,2.47,13.58c1.65,4.15,3.95,7.72,6.9,10.72,2.95,3,6.42,5.3,10.42,6.9,4,1.6,8.35,2.4,13.05,2.4Z"></path>
  <g>
    <path class="cls-2" d="M422.58,68.85l-56.58-43.57c-.54-.42-1.22-.65-1.92-.65l-73.46-.21c-2.77,0-3.94,3.21-1.78,4.86l56.93,43.54c.54.41,1.22.64,1.91.64l38.48.13-31.12-26.69c-1.03-1.69-.88-4.14,1.05-5.66,1.74-.6,3.67-.23,5.07.96l33.99,28.98c.77.66,1.53,1.55,1.55,2.44h0c4.49,6.8.56,19.78.56,19.78h0c-3.06.54-5.6,2.95-6.14,6.19-.37,2.21.27,4.36,1.57,5.98-3.16,4.74-14.36,23.31-3.51,34.07,0,0,4.83,2,11.42-.23,1.52-.51,2.17-2.29,1.34-3.66-1.99-3.28-4.57-10.89-2.8-27.38,3.4-.25,6.31-2.78,6.9-6.28.46-2.74-.62-5.38-2.61-7.05h0s4.94-14.92.41-21.4l16.95.06c2.76,0,3.94-3.2,1.79-4.86Z"></path>
    <path class="cls-2" d="M380.89,96.92c.77-4.62,4.96-7.8,9.54-7.42.53-1.61,1.07-3.35,1.63-5.24.17-.59-.25-1.19-.87-1.2-5.77-.16-30.63-.86-41.38-1.16-3.24-.09-6.36-1.2-8.92-3.18l-34.01-26.21c-.57-.44-1.4-.17-1.61.51l-5.64,18.32s-2.18,5.02,2.61,12.8c4.57,7.44,39.44,31.39,70.65,24.88,3.07-.64,7.27-2.29,10.21-4.61-1.78-1.96-2.68-4.67-2.21-7.48Z"></path>
  </g>
</svg>